<?xml version="1.0" encoding="utf-8"?>
<!-- Generator: Adobe Illustrator 16.0.0, SVG Export Plug-In . SVG Version: 6.00 Build 0)  -->
<!DOCTYPE svg PUBLIC "-//W3C//DTD SVG 1.1//EN" "http://www.w3.org/Graphics/SVG/1.1/DTD/svg11.dtd">
<svg version="1.1" xmlns="http://www.w3.org/2000/svg" xmlns:xlink="http://www.w3.org/1999/xlink" x="0px" y="0px" width="1920px"
	 height="176.039px" viewBox="0 0 1920 176.039" enable-background="new 0 0 1920 176.039" xml:space="preserve">
<g id="Layer_1">
	<linearGradient id="SVGID_1_" gradientUnits="userSpaceOnUse" x1="589.2358" y1="88.4727" x2="1394.3983" y2="88.4727">
		<stop  offset="0.0215" style="stop-color:#139E1B"/>
		<stop  offset="0.2865" style="stop-color:#0C8B25"/>
		<stop  offset="0.733" style="stop-color:#037232"/>
		<stop  offset="1" style="stop-color:#006837"/>
	</linearGradient>
	<path fill="url(#SVGID_1_)" d="M1628.727,177c-18.976-20.697-38.154-38.291-49.227-46.063C1453.5,42.5,1343.875,1.856,1081.5,0
		c-267-1.89-373.273,46.783-444,98c-37.23,26.96-46.441,49.708-48.264,79H1628.727z"/>
	<linearGradient id="SVGID_2_" gradientUnits="userSpaceOnUse" x1="-2.3857" y1="59.5957" x2="719.177" y2="148.1925">
		<stop  offset="0.0215" style="stop-color:#139E1B"/>
		<stop  offset="0.2828" style="stop-color:#109520"/>
		<stop  offset="0.7094" style="stop-color:#077C2C"/>
		<stop  offset="1" style="stop-color:#006837"/>
	</linearGradient>
	<path fill="url(#SVGID_2_)" d="M-1.5,177h930.305c-34.555-28.179-69.655-52.935-83.305-61c-132-78-234-116-484-116
		C178.32,0,70.798,22.02-1.5,52.383V177z"/>
	<linearGradient id="SVGID_3_" gradientUnits="userSpaceOnUse" x1="1413.3281" y1="353.7178" x2="1694.6139" y2="18.4945">
		<stop  offset="0.0215" style="stop-color:#139E1B"/>
		<stop  offset="0.2865" style="stop-color:#0C8B25"/>
		<stop  offset="0.733" style="stop-color:#037232"/>
		<stop  offset="1" style="stop-color:#006837"/>
	</linearGradient>
	<path fill="url(#SVGID_3_)" d="M1920.5,41.783c-54.784-7.384-118.369-11.241-195-11.783c-267-1.89-348,42-428,80
		c-37.094,17.619-68.368,40.717-94.775,67H1920.5V41.783z"/>
</g>
<g id="Layer_2">
	<path display="none" fill="#006A09" d="M-158.5-1062c0,0,179,60,409,64s328-30,588-34s384,16,530,24s346-52,388-52s5,88,5,88v107
		l-1919,5L-158.5-1062z"/>
</g>
<g id="Layer_3">
	<g>
		<path fill="#2AF0FF" stroke="#2A8DFF" stroke-width="9" stroke-miterlimit="10" d="M542.862-992.031
			c-4.819-41.494-52.493-74.077-110.602-74.077c-44.713,0-83.246,19.293-100.834,47.091c-8.086-1.367-16.51-2.091-25.166-2.091
			c-61.31,0-111.011,36.269-111.011,81.008s49.701,81.008,111.011,81.008c2.057,0,4.099-0.044,6.128-0.124
			c2.291,28.213,35.13,50.592,75.32,50.592c31.839,0,59.053-14.051,70.134-33.915c15.737,2.876,32.667,4.446,50.31,4.446
			c83.342,0,150.903-34.925,150.903-78.007C659.056-953.008,609.471-983.926,542.862-992.031z"/>
		<path fill="#92FCFF" d="M351.115-858.96c0,0,34.219,43.627,97.495,1.5C448.61-857.46,390.113-798.963,351.115-858.96z"/>
		<path fill="#2AF0FF" stroke="#2A8DFF" stroke-width="9" stroke-miterlimit="10" d="M514.867-805.384
			c3.302,28.433,35.969,50.759,75.786,50.759c30.638,0,57.041-13.221,69.093-32.268c5.541,0.937,11.313,1.433,17.244,1.433
			c42.01,0,76.066-24.852,76.066-55.508c0-30.655-34.056-55.508-76.066-55.508c-1.41,0-2.809,0.03-4.2,0.085
			c-1.569-19.332-24.072-34.666-51.61-34.666c-21.817,0-40.464,9.628-48.057,23.239c-10.783-1.971-22.384-3.047-34.473-3.047
			c-57.107,0-103.401,23.931-103.401,53.452C435.249-832.123,469.225-810.938,514.867-805.384z"/>
		<path fill="#92FCFF" d="M229.622-941.453c0,0,9-41.999,55.498-50.998s61.714,3.785,61.714,3.785s-1.929-13.089,13.282-30.783
			c19.384-22.55,49.498-26.999,71.997-25.499s49.498,13.499,59.997,31.498c0,0-51.442-29.382-85.942-18.549
			c-44.868,14.089-50.551,42.548-52.051,60.547c0,0-32.999-13.5-59.997-7.5S247.621-969.951,229.622-941.453z"/>
		<path fill="#92FCFF" d="M741.341-855.048c0,0-4.398,26.565-39.149,35.425c-34.752,8.859-47.033,2.05-47.033,2.05
			s2.22,7.942-8.296,19.945c-13.399,15.298-35.984,20.185-53.14,20.858c-17.154,0.673-38.328-4.815-47.333-15.181
			c0,0,40.722,14.481,66.266,5.342c33.222-11.886,35.886-29.855,35.983-41.073c0,0,25.812,5.987,45.946,0.365
			C714.717-832.938,729.335-836.178,741.341-855.048z"/>
	</g>
	<g>
		<path fill="#2AF0FF" stroke="#2A8DFF" stroke-width="9" stroke-miterlimit="10" d="M1209.366-865.031
			c-4.818-41.494-52.492-74.077-110.602-74.077c-44.713,0-83.246,19.293-100.834,47.091c-8.086-1.367-16.51-2.091-25.166-2.091
			c-61.31,0-111.011,36.269-111.011,81.008s49.701,81.008,111.011,81.008c2.057,0,4.1-0.044,6.129-0.124
			c2.29,28.213,35.13,50.592,75.32,50.592c31.839,0,59.053-14.051,70.134-33.915c15.737,2.876,32.667,4.446,50.31,4.446
			c83.342,0,150.903-34.925,150.903-78.007C1325.561-826.008,1275.976-856.926,1209.366-865.031z"/>
		<path fill="#92FCFF" d="M1017.62-731.96c0,0,34.219,43.627,97.494,1.5C1115.114-730.46,1056.618-671.963,1017.62-731.96z"/>
		<path fill="#2AF0FF" stroke="#2A8DFF" stroke-width="9" stroke-miterlimit="10" d="M1181.372-678.384
			c3.302,28.433,35.969,50.759,75.785,50.759c30.639,0,57.041-13.221,69.094-32.268c5.54,0.937,11.313,1.433,17.244,1.433
			c42.01,0,76.065-24.852,76.065-55.508c0-30.655-34.056-55.508-76.065-55.508c-1.41,0-2.81,0.03-4.2,0.085
			c-1.569-19.332-24.071-34.666-51.61-34.666c-21.816,0-40.464,9.628-48.057,23.239c-10.783-1.971-22.385-3.047-34.473-3.047
			c-57.107,0-103.401,23.931-103.401,53.452C1101.754-705.123,1135.729-683.938,1181.372-678.384z"/>
		<path fill="#92FCFF" d="M896.127-814.453c0,0,9-41.999,55.497-50.998c46.498-8.999,61.715,3.785,61.715,3.785
			s-1.93-13.089,13.281-30.783c19.385-22.55,49.498-26.999,71.997-25.499s49.498,13.499,59.997,31.498
			c0,0-51.442-29.382-85.942-18.549c-44.868,14.089-50.551,42.548-52.051,60.547c0,0-32.999-13.5-59.997-7.5
			S914.126-842.951,896.127-814.453z"/>
		<path fill="#92FCFF" d="M1407.846-728.048c0,0-4.398,26.565-39.149,35.425c-34.752,8.859-47.033,2.05-47.033,2.05
			s2.22,7.942-8.296,19.945c-13.399,15.298-35.984,20.185-53.14,20.858c-17.154,0.673-38.328-4.815-47.334-15.181
			c0,0,40.723,14.481,66.267,5.342c33.222-11.886,35.886-29.855,35.983-41.073c0,0,25.813,5.987,45.945,0.365
			S1395.84-709.178,1407.846-728.048z"/>
		<path fill="#2AF0FF" stroke="#2A8DFF" stroke-width="9" stroke-miterlimit="10" d="M868.939-709.31
			c2.227,19.174,24.255,34.229,51.105,34.229c20.661,0,38.465-8.915,46.593-21.76c3.736,0.632,7.629,0.967,11.629,0.967
			c28.328,0,51.294-16.759,51.294-37.432c0-20.672-22.966-37.432-51.294-37.432c-0.951,0-1.895,0.021-2.833,0.058
			c-1.058-13.036-16.232-23.377-34.803-23.377c-14.712,0-27.287,6.493-32.407,15.671c-7.271-1.328-15.095-2.055-23.246-2.055
			c-38.511,0-69.729,16.138-69.729,36.046C815.249-727.341,838.16-713.055,868.939-709.31z"/>
		<path fill="#92FCFF" d="M1021.661-742.8c0,0-2.967,17.914-26.4,23.888c-23.436,5.975-31.717,1.382-31.717,1.382
			s1.497,5.356-5.595,13.451c-9.035,10.315-24.266,13.611-35.834,14.065s-25.847-3.247-31.92-10.237c0,0,27.462,9.766,44.687,3.603
			c22.403-8.015,24.199-20.133,24.266-27.698c0,0,17.406,4.038,30.982,0.247C1003.707-727.892,1013.564-730.075,1021.661-742.8z"/>
	</g>
</g>
</svg>
